Normalized EMG Linear Envelopes
nRows=247
nColumns=4

endheader
time	 med_gas_r	  soleus_r	 tib_ant_r	
2.96069	  0.081410	  0.061647	  0.020129	
2.99395	  0.079156	  0.060832	  0.019336	
3.02722	  0.077129	  0.059883	  0.018703	
3.06048	  0.075539	  0.058713	  0.018304	
3.09375	  0.074605	  0.057496	  0.018125	
3.12702	  0.074534	  0.056539	  0.018104	
3.16028	  0.075519	  0.056075	  0.018186	
3.19355	  0.077694	  0.056101	  0.018331	
3.22681	  0.081013	  0.056382	  0.018502	
3.26008	  0.085104	  0.056573	  0.018648	
3.29335	  0.089267	  0.056398	  0.018726	
3.32661	  0.092702	  0.055776	  0.018745	
3.35988	  0.094836	  0.054835	  0.018776	
3.39315	  0.095533	  0.053822	  0.018922	
3.42641	  0.095061	  0.052980	  0.019246	
3.45968	  0.093889	  0.052442	  0.019718	
3.49294	  0.092491	  0.052208	  0.020200	
3.52621	  0.091229	  0.052188	  0.020500	
3.55948	  0.090315	  0.052256	  0.020453	
3.59274	  0.089793	  0.052274	  0.020010	
3.62601	  0.089565	  0.052101	  0.019255	
3.65927	  0.089449	  0.051621	  0.018359	
3.69254	  0.089277	  0.050808	  0.017504	
3.72581	  0.088974	  0.049777	  0.016837	
3.75907	  0.088574	  0.048754	  0.016472	
3.79234	  0.088186	  0.048000	  0.016502	
3.8256	  0.087914	  0.047725	  0.016960	
3.85887	  0.087778	  0.048036	  0.017759	
3.89214	  0.087642	  0.048936	  0.018657	
3.9254	  0.087231	  0.050357	  0.019336	
3.95867	  0.086261	  0.052214	  0.019548	
3.99194	  0.084599	  0.054431	  0.019249	
4.0252	  0.082359	  0.056936	  0.018608	
4.05847	  0.079886	  0.059597	  0.017896	
4.09173	  0.077670	  0.062179	  0.017344	
4.125	  0.076211	  0.064366	  0.017075	
4.15827	  0.075830	  0.065837	  0.017099	
4.19153	  0.076505	  0.066338	  0.017345	
4.2248	  0.077858	  0.065723	  0.017676	
4.25806	  0.079385	  0.063984	  0.017915	
4.29133	  0.080760	  0.061308	  0.017912	
4.3246	  0.081970	  0.058098	  0.017614	
4.35786	  0.083140	  0.054889	  0.017095	
4.39113	  0.084247	  0.052153	  0.016514	
4.4244	  0.085013	  0.050123	  0.016043	
4.45766	  0.085131	  0.048758	  0.015805	
4.49093	  0.084596	  0.047879	  0.015864	
4.52419	  0.083828	  0.047353	  0.016231	
4.55746	  0.083441	  0.047180	  0.016865	
4.59073	  0.083858	  0.047439	  0.017678	
4.62399	  0.085046	  0.048147	  0.018537	
4.65726	  0.086542	  0.049197	  0.019304	
4.69052	  0.087716	  0.050397	  0.019863	
4.72379	  0.088100	  0.051586	  0.020135	
4.75706	  0.087599	  0.052696	  0.020069	
4.79032	  0.086451	  0.053729	  0.019634	
4.82359	  0.084984	  0.054686	  0.018860	
4.85685	  0.083391	  0.055538	  0.017904	
4.89012	  0.081759	  0.056248	  0.017087	
4.92339	  0.080344	  0.056823	  0.016874	
4.95665	  0.079828	  0.057346	  0.017800	
4.98992	  0.081230	  0.058001	  0.020405	
5.02319	  0.085500	  0.059099	  0.025257	
5.05645	  0.093173	  0.061108	  0.033082	
5.08972	  0.104462	  0.064665	  0.044925	
5.12298	  0.119710	  0.070571	  0.062153	
5.15625	  0.139606	  0.079697	  0.086061	
5.18952	  0.164625	  0.092727	  0.117093	
5.22278	  0.193889	  0.109781	  0.154027	
5.25605	  0.224520	  0.130121	  0.193787	
5.28931	  0.252402	  0.152209	  0.232274	
5.32258	  0.274153	  0.174129	  0.265912	
5.35585	  0.288842	  0.194152	  0.292997	
5.38911	  0.298037	  0.211144	  0.314045	
5.42238	  0.304237	  0.224729	  0.331144	
5.45565	  0.309201	  0.235233	  0.346919	
5.48891	  0.313590	  0.243436	  0.363609	
5.52218	  0.317828	  0.250188	  0.382354	
5.55544	  0.322940	  0.256086	  0.402684	
5.58871	  0.330385	  0.261375	  0.422492	
5.62198	  0.341159	  0.266015	  0.438864	
5.65524	  0.355076	  0.269779	  0.449537	
5.68851	  0.370773	  0.272313	  0.454022	
5.72177	  0.386263	  0.273326	  0.453514	
5.75504	  0.399600	  0.272934	  0.449771	
5.78831	  0.409467	  0.271959	  0.444114	
5.82157	  0.415594	  0.271834	  0.437488	
5.85484	  0.418788	  0.274030	  0.431290	
5.8881	  0.420431	  0.279279	  0.427847	
5.92137	  0.421776	  0.287136	  0.429719	
5.95464	  0.423610	  0.296299	  0.438240	
5.9879	  0.426509	  0.305542	  0.452479	
6.02117	  0.431220	  0.314589	  0.469541	
6.05444	  0.438629	  0.324197	  0.486137	
6.0877	  0.449324	  0.335427	  0.500339	
6.12097	  0.463209	  0.348809	  0.512343	
6.15423	  0.479570	  0.364104	  0.523795	
6.1875	  0.497479	  0.380619	  0.536305	
6.22077	  0.516113	  0.397381	  0.550281	
6.25403	  0.534678	  0.412851	  0.564821	
6.2873	  0.552060	  0.424793	  0.578458	
6.32056	  0.566585	  0.431018	  0.589982	
6.35383	  0.576232	  0.430771	  0.598750	
6.3871	  0.579389	  0.425482	  0.604581	
6.42036	  0.575912	  0.418075	  0.607699	
6.45363	  0.567867	  0.411519	  0.608795	
6.4869	  0.559253	  0.407968	  0.608874	
6.52016	  0.554560	  0.408966	  0.608791	
6.55343	  0.556891	  0.415796	  0.608886	
6.58669	  0.566846	  0.429002	  0.609131	
6.61996	  0.582737	  0.447338	  0.609629	
6.65323	  0.601644	  0.467378	  0.610900	
6.68649	  0.620452	  0.484623	  0.613639	
6.71976	  0.636503	  0.495632	  0.618185	
6.75302	  0.648114	  0.499712	  0.624262	
6.78629	  0.655071	  0.499016	  0.631275	
6.81956	  0.658681	  0.497100	  0.638951	
6.85282	  0.661016	  0.497032	  0.647788	
6.88609	  0.663696	  0.500173	  0.658853	
6.91935	  0.667027	  0.506089	  0.672981	
6.95262	  0.670037	  0.513284	  0.689969	
6.98589	  0.671288	  0.520142	  0.708337	
7.01915	  0.669714	  0.525430	  0.725655	
7.05242	  0.664896	  0.528143	  0.738999	
7.08569	  0.656779	  0.527122	  0.745429	
7.11895	  0.645522	  0.521250	  0.742852	
7.15222	  0.631907	  0.510402	  0.731265	
7.18548	  0.617853	  0.496263	  0.713502	
7.21875	  0.606179	  0.481919	  0.694505	
7.25202	  0.599461	  0.470322	  0.679193	
7.28528	  0.598845	  0.463017	  0.670130	
7.31855	  0.603735	  0.460280	  0.666373	
7.35181	  0.612421	  0.462138	  0.664148	
7.38508	  0.622985	  0.468798	  0.659026	
7.41835	  0.633972	  0.480003	  0.648427	
7.45161	  0.644840	  0.494410	  0.632949	
7.48488	  0.656160	  0.510124	  0.615755	
7.51815	  0.669228	  0.525902	  0.600681	
7.55141	  0.684943	  0.541527	  0.590711	
7.58468	  0.702661	  0.556829	  0.587767	
7.61794	  0.720077	  0.570495	  0.593183	
7.65121	  0.734417	  0.580091	  0.607649	
7.68448	  0.744061	  0.583439	  0.630355	
7.71774	  0.749332	  0.580170	  0.658330	
7.75101	  0.751953	  0.572151	  0.686969	
7.78427	  0.753827	  0.562517	  0.711609	
7.81754	  0.756168	  0.554216	  0.728980	
7.85081	  0.759421	  0.549202	  0.737562	
7.88407	  0.763544	  0.548561	  0.737010	
7.91734	  0.768122	  0.552868	  0.727556	
7.9506	  0.772271	  0.562023	  0.710065	
7.98387	  0.774694	  0.574606	  0.686525	
8.01714	  0.774162	  0.587659	  0.660252	
8.0504	  0.770377	  0.597725	  0.635410	
8.08367	  0.764823	  0.602895	  0.616024	
8.11694	  0.760797	  0.604319	  0.604894	
8.1502	  0.762071	  0.605627	  0.602910	
8.18347	  0.770633	  0.610472	  0.609131	
8.21673	  0.785104	  0.620247	  0.621603	
8.25	  0.801133	  0.633763	  0.638261	
8.28327	  0.813527	  0.648492	  0.657201	
8.31653	  0.818625	  0.661642	  0.676388	
8.3498	  0.815612	  0.670305	  0.693541	
8.38306	  0.806421	  0.671669	  0.706631	
8.41633	  0.794463	  0.664137	  0.714629	
8.4496	  0.782746	  0.648556	  0.717836	
8.48286	  0.772387	  0.628062	  0.717640	
8.51613	  0.762471	  0.606461	  0.716034	
8.5494	  0.751314	  0.586572	  0.715131	
8.58266	  0.738035	  0.569761	  0.716539	
8.61593	  0.723226	  0.556446	  0.720650	
8.64919	  0.708487	  0.546744	  0.726312	
8.68246	  0.695563	  0.540811	  0.731396	
8.71573	  0.685877	  0.538978	  0.734049	
8.74899	  0.680502	  0.541692	  0.733726	
8.78226	  0.680002	  0.549006	  0.731116	
8.81552	  0.683804	  0.559644	  0.726958	
8.84879	  0.689611	  0.570377	  0.720784	
8.88206	  0.693809	  0.576814	  0.710873	
8.91532	  0.693281	  0.575771	  0.695771	
8.94859	  0.687566	  0.567729	  0.676132	
8.98185	  0.679484	  0.557194	  0.655082	
9.01512	  0.673254	  0.550151	  0.636640	
9.04839	  0.671457	  0.550369	  0.623628	
9.08165	  0.673520	  0.557480	  0.616971	
9.11492	  0.676997	  0.568096	  0.616680	
9.14819	  0.680078	  0.578462	  0.623041	
9.18145	  0.682623	  0.586010	  0.636354	
9.21472	  0.684885	  0.588954	  0.655214	
9.24798	  0.685620	  0.585387	  0.675147	
9.28125	  0.681828	  0.573562	  0.689571	
9.31452	  0.670462	  0.553166	  0.693110	
9.34778	  0.650518	  0.525993	  0.684874	
9.38105	  0.623802	  0.495212	  0.668972	
9.41431	  0.594057	  0.464030	  0.651847	
9.44758	  0.565419	  0.434960	  0.638782	
9.48085	  0.541252	  0.409988	  0.632211	
9.51411	  0.523767	  0.391024	  0.632312	
9.54738	  0.514194	  0.379961	  0.638258	
9.58065	  0.513004	  0.378146	  0.648717	
9.61391	  0.519802	  0.385577	  0.661686	
9.64718	  0.532974	  0.400470	  0.674513	
9.68044	  0.549664	  0.419650	  0.684418	
9.71371	  0.566525	  0.439600	  0.689155	
9.74698	  0.580992	  0.457494	  0.687476	
9.78024	  0.592136	  0.471687	  0.679443	
9.81351	  0.600273	  0.481555	  0.666467	
9.84677	  0.605466	  0.486831	  0.650629	
9.88004	  0.606048	  0.486729	  0.633104	
9.91331	  0.598445	  0.479349	  0.612533	
9.94657	  0.578552	  0.461986	  0.584843	
9.97984	  0.543722	  0.432415	  0.545223	
10.0131	  0.494114	  0.390437	  0.491204	
10.0464	  0.432849	  0.338589	  0.424638	
10.0796	  0.365233	  0.281547	  0.351169	
10.1129	  0.297514	  0.224682	  0.277782	
10.1462	  0.235519	  0.172668	  0.210299	
10.1794	  0.183458	  0.128708	  0.152250	
10.2127	  0.143244	  0.094383	  0.105107	
10.246	  0.114574	  0.069847	  0.069003	
10.2792	  0.095648	  0.054181	  0.043213	
10.3125	  0.084103	  0.045790	  0.026334	
10.3458	  0.077731	  0.042798	  0.016453	
10.379	  0.074803	  0.043329	  0.011493	
10.4123	  0.074067	  0.045662	  0.009617	
10.4456	  0.074625	  0.048333	  0.009484	
10.4788	  0.075817	  0.050272	  0.010249	
10.5121	  0.077162	  0.050926	  0.011422	
10.5454	  0.078334	  0.050285	  0.012705	
10.5786	  0.079157	  0.048726	  0.013914	
10.6119	  0.079596	  0.046770	  0.014944	
10.6452	  0.079749	  0.044880	  0.015750	
10.6784	  0.079807	  0.043368	  0.016320	
10.7117	  0.079978	  0.042394	  0.016664	
10.745	  0.080409	  0.041992	  0.016830	
10.7782	  0.081183	  0.042109	  0.016914	
10.8115	  0.082399	  0.042639	  0.017039	
10.8448	  0.084224	  0.043425	  0.017314	
10.878	  0.086797	  0.044255	  0.017798	
10.9113	  0.090010	  0.044871	  0.018502	
10.9446	  0.093349	  0.045050	  0.019423	
10.9778	  0.095982	  0.044694	  0.020555	
11.0111	  0.097061	  0.043875	  0.021870	
11.0444	  0.096047	  0.042770	  0.023299	
11.0776	  0.092887	  0.041567	  0.024740	
11.1109	  0.087991	  0.040399	  0.026100	
11.1442	  0.082080	  0.039330	  0.027330	
